<svg width="81" height="80" viewBox="0 0 81 80" fill="none" xmlns="http://www.w3.org/2000/svg">
<rect x="0.133301" width="80" height="80" rx="40" fill="white"/>
<g clip-path="url(#clip0_121_18)">
<path d="M19.3333 18.5328C19.3894 18.4373 19.4456 18.3474 19.5018 18.2519C19.7883 17.7631 20.3446 17.5102 20.8671 17.6282C21.4289 17.7631 21.8279 18.2182 21.8672 18.7912C21.8784 18.9429 21.8672 19.1003 21.8672 19.2576C21.8672 32.0902 21.8672 44.9284 21.8672 57.761V58.3566H22.3841C29.3454 58.3566 36.3011 58.3566 43.2624 58.3678C43.5152 58.3678 43.8073 58.4802 44.0096 58.6375C45.2625 59.6039 46.6334 60.323 48.1617 60.7388C48.3077 60.7781 48.4482 60.8399 48.5887 60.8905H20.2659C19.8502 60.6882 19.5355 60.3792 19.3333 59.9578V18.5328Z" fill="#1BAD4E"/>
<path d="M53.7521 60.8961C54.4993 60.6208 55.2803 60.4185 55.9882 60.0589C56.8254 59.6375 57.5895 59.0757 58.3929 58.5869C58.5727 58.4801 58.7918 58.379 58.9941 58.3734C59.6964 58.3453 60.4044 58.3734 61.1067 58.3565C61.7753 58.3397 62.2865 58.5532 62.5619 59.2049C62.5787 59.2498 62.663 59.2611 62.7192 59.2892V59.9634C62.6686 59.9746 62.5899 59.9802 62.5787 60.0083C62.4382 60.4522 62.0787 60.6826 61.7022 60.8961H53.7521Z" fill="#1BAD4E"/>
<path d="M30.722 41.8832C31.9244 40.6021 33.0705 39.3829 34.2167 38.1581C35.6831 36.5962 37.1776 35.0623 38.5935 33.4554C39.425 32.5172 40.6836 32.8543 41.0151 34.0285C41.6724 36.3714 42.4478 38.6806 43.1782 40.9954C43.2568 41.2483 43.2512 41.4168 43.0433 41.6247C39.352 45.3835 38.6553 50.9008 41.2848 55.4799C41.3409 55.5754 41.3859 55.6709 41.4477 55.7945H24.4293V31.7755C25.0923 32.0396 25.7216 32.298 26.3621 32.5509C28.2162 33.2813 27.9521 33.0734 28.5364 34.8994C29.2275 37.085 29.9017 39.2762 30.5872 41.4618C30.6265 41.5798 30.6658 41.6977 30.7276 41.8832H30.722Z" fill="#1BAD4E"/>
<path d="M60.0898 49.6762C60.101 54.598 56.095 58.6152 51.1789 58.6152C46.2627 58.6152 42.2455 54.6092 42.2511 49.693C42.2511 44.7881 46.2402 40.7878 51.1395 40.7709C56.0613 40.7597 60.0842 44.7544 60.0898 49.6706V49.6762ZM49.9316 54.4912C49.9316 54.7441 49.9203 54.9126 49.9316 55.0812C49.9709 55.7048 50.4485 56.2049 51.0553 56.2554C51.6901 56.3116 52.2408 55.952 52.3981 55.3396C52.4543 55.1093 52.4711 54.8677 52.4599 54.6317C52.443 54.3451 52.5385 54.1878 52.7914 54.0305C54.314 53.0754 54.6679 51.0583 53.5723 49.6481C52.9936 48.9065 52.2239 48.5244 51.28 48.4738C50.8586 48.4514 50.6676 48.2828 50.6788 47.9345C50.6901 47.5861 50.8923 47.44 51.2294 47.4344C51.8475 47.4344 52.4711 47.4625 53.0891 47.4063C53.7858 47.3389 54.2297 46.7714 54.2016 46.0972C54.1735 45.4286 53.6566 44.9342 52.9599 44.9061C52.797 44.9005 52.6284 44.9061 52.4093 44.9061C52.4093 44.6757 52.4205 44.4959 52.4093 44.3218C52.37 43.6981 51.8924 43.1981 51.2856 43.1475C50.6563 43.0913 50.1001 43.4565 49.9428 44.0633C49.8866 44.2937 49.8698 44.5353 49.881 44.7713C49.8922 45.0522 49.8023 45.2095 49.5551 45.3724C48.4989 46.0523 48.0381 47.0467 48.1617 48.2884C48.2797 49.4514 48.8978 50.2886 49.9653 50.7437C50.3417 50.9066 50.7856 50.9066 51.1901 51.019C51.3587 51.0696 51.5441 51.1988 51.6227 51.3449C51.6789 51.4572 51.6227 51.7045 51.5272 51.7944C51.4148 51.9011 51.2013 51.9461 51.0328 51.9517C50.426 51.9798 49.8192 51.9292 49.218 51.9966C48.5494 52.0697 48.1168 52.6371 48.1505 53.3001C48.1786 53.9462 48.6843 54.4519 49.3472 54.4912C49.527 54.5025 49.7068 54.4912 49.9372 54.4912H49.9316Z" fill="#1BAD4E"/>
<path d="M60.0841 42.4675C57.1962 39.1976 53.6678 37.8491 49.3921 38.3436C49.4651 38.1975 49.5101 38.0851 49.5663 37.984C52.2463 33.1633 54.9263 28.3427 57.6007 23.5164C57.8479 23.0669 58.1794 22.7579 58.7019 22.6961C59.348 22.6231 59.9661 23.1287 60.0616 23.8142C60.0784 23.9378 60.0728 24.067 60.0728 24.1962C60.0728 30.1406 60.0728 36.0849 60.0728 42.0349V42.4675H60.0841Z" fill="#1BAD4E"/>
</g>
<defs>
<clipPath id="clip0_121_18">
<rect width="43.3803" height="43.296" fill="white" transform="translate(19.3333 17.6002)"/>
</clipPath>
</defs>
</svg>
