<svg width="219" height="50" viewBox="0 0 219 50" fill="none" xmlns="http://www.w3.org/2000/svg">
<path d="M49.2285 26.481L43.1851 32.4522L35.6309 25.0001L43.1851 17.5719L49.2285 23.5431C49.4272 23.739 49.5871 23.9699 49.6998 24.2239C49.9098 24.7454 49.9098 25.3265 49.6998 25.848C49.582 26.085 49.4224 26.2994 49.2285 26.481Z" fill="#A1D154"/>
<path d="M43.1727 9.18826V17.548H32.4639V7.0625H41.0455C41.3278 7.065 41.607 7.12179 41.8674 7.22969C42.1237 7.33702 42.3574 7.49096 42.5563 7.68351C42.7595 7.87805 42.9193 8.11241 43.0254 8.37153C43.1316 8.63066 43.1818 8.90885 43.1727 9.18826Z" fill="#A1D154"/>
<path d="M32.4645 7.06245L24.8861 14.4907L17.3682 7.06245L23.4115 1.09121C23.6093 0.894058 23.8447 0.737568 24.104 0.630773C24.3633 0.523979 24.6414 0.468994 24.9224 0.468994C25.2033 0.468994 25.4815 0.523979 25.7408 0.630773C26.0001 0.737568 26.2355 0.894058 26.4332 1.09121L32.4645 7.06245Z" fill="#A1D154"/>
<path d="M17.3678 7.0625V17.5719H6.67101V9.21215C6.66813 8.92994 6.72152 8.64994 6.82814 8.38812C6.93929 8.12973 7.09928 7.89465 7.29952 7.69545C7.5027 7.50254 7.74042 7.34865 8.00055 7.24164C8.26554 7.1363 8.54892 7.08354 8.83454 7.08638L17.3678 7.0625Z" fill="#A1D154"/>
<path d="M14.2374 24.9762L6.6711 32.4283L0.627719 26.457C0.428916 26.2637 0.271035 26.0331 0.163267 25.7789C0.0554996 25.5247 0 25.2518 0 24.9762C0 24.7005 0.0554996 24.4276 0.163267 24.1734C0.271035 23.9192 0.428916 23.6887 0.627719 23.4953L6.6711 17.524L14.2374 24.9762Z" fill="#A1D154"/>
<path d="M17.3679 32.4283V42.9377H8.83467C8.5543 42.9393 8.27637 42.8861 8.01689 42.7812C7.7574 42.6762 7.52146 42.5217 7.32264 42.3263C7.12383 42.131 6.96605 41.8988 6.85839 41.643C6.75073 41.3872 6.69531 41.1129 6.69531 40.8359V32.4761L17.3679 32.4283Z" fill="#A1D154"/>
<path d="M32.4639 42.9377L26.4205 48.909C26.2228 49.1061 25.9874 49.2626 25.7281 49.3694C25.4688 49.4762 25.1906 49.5312 24.9097 49.5312C24.6288 49.5312 24.3506 49.4762 24.0913 49.3694C23.832 49.2626 23.5966 49.1061 23.3988 48.909L17.3555 42.9377L24.8855 35.5095L32.4639 42.9377Z" fill="#A1D154"/>
<path d="M43.1727 32.4283V40.788C43.176 41.0649 43.1232 41.3397 43.0174 41.5961C42.9116 41.8526 42.7551 42.0856 42.5569 42.2814C42.3587 42.4772 42.1229 42.6319 41.8634 42.7364C41.6038 42.8409 41.3257 42.8931 41.0455 42.8899H32.4639V32.3805L43.1727 32.4283Z" fill="#A1D154"/>
<path d="M24.9224 14.4907L21.7919 17.5719H17.3682V7.0625L24.9224 14.4907Z" fill="#3EA02C"/>
<path d="M17.3677 17.5719V21.8831L14.2372 24.9643L6.6709 17.5719H17.3677Z" fill="#3EA02C"/>
<path d="M17.3677 28.0813V32.4283H6.6709L14.2372 25.0001L17.3677 28.0813Z" fill="#3EA02C"/>
<path d="M24.9224 35.5095L17.3682 42.9377V32.4283H21.7919L24.9224 35.5095Z" fill="#3EA02C"/>
<path d="M32.4638 32.4283V42.9377L24.8975 35.5095L28.04 32.4283H32.4638Z" fill="#3EA02C"/>
<path d="M43.1727 32.4283H32.4639V28.0813L35.5943 25.0001L43.1727 32.4283Z" fill="#3EA02C"/>
<path d="M43.1727 17.5719L35.6185 25.0001L32.4639 21.8831V17.5719H43.1727Z" fill="#3EA02C"/>
<path d="M32.464 7.0625V17.5719H28.0644L24.9219 14.4907L32.464 7.0625Z" fill="#3EA02C"/>
<path d="M83.833 39.8684C83.7727 39.8684 83.713 39.8567 83.6573 39.8339C83.6015 39.8111 83.5509 39.7777 83.5082 39.7355C83.4656 39.6934 83.4318 39.6434 83.4087 39.5883C83.3856 39.5332 83.3737 39.4742 83.3737 39.4146V24.6776C83.3741 24.5774 83.341 24.4798 83.2794 24.4001C83.2177 24.3205 83.1312 24.2632 83.0332 24.2373C82.9351 24.2114 82.8312 24.2183 82.7376 24.2569C82.6439 24.2955 82.5659 24.3636 82.5156 24.4507L75.1426 36.6798C75.1032 36.7498 75.0453 36.8079 74.975 36.8478C74.9048 36.8878 74.8248 36.9082 74.7438 36.9067H72.3264C72.2454 36.9082 72.1654 36.8878 72.0952 36.8478C72.0249 36.8079 71.967 36.7498 71.9276 36.6798L64.603 24.7373C64.5527 24.6503 64.4746 24.5821 64.381 24.5435C64.2873 24.5049 64.1834 24.498 64.0854 24.5239C63.9874 24.5498 63.9008 24.6071 63.8392 24.6868C63.7776 24.7664 63.7444 24.864 63.7448 24.9642V39.4146C63.7448 39.4742 63.7329 39.5332 63.7099 39.5883C63.6868 39.6434 63.6529 39.6934 63.6103 39.7355C63.5676 39.7777 63.517 39.8111 63.4613 39.8339C63.4056 39.8567 63.3458 39.8684 63.2855 39.8684H57.9915C57.9312 39.8684 57.8715 39.8567 57.8158 39.8339C57.76 39.8111 57.7094 39.7777 57.6667 39.7355C57.6241 39.6934 57.5903 39.6434 57.5672 39.5883C57.5441 39.5332 57.5322 39.4742 57.5322 39.4146V12.3291C57.5322 12.2695 57.5441 12.2105 57.5672 12.1554C57.5903 12.1004 57.6241 12.0503 57.6667 12.0082C57.7094 11.966 57.76 11.9326 57.8158 11.9098C57.8715 11.887 57.9312 11.8753 57.9915 11.8753H62.6812C62.7606 11.875 62.8388 11.8946 62.9086 11.9321C62.9783 11.9697 63.0373 12.0241 63.08 12.0902L73.1967 28.5947C73.2368 28.6642 73.2949 28.722 73.3649 28.7622C73.435 28.8024 73.5145 28.8235 73.5955 28.8235C73.6765 28.8235 73.7561 28.8024 73.8261 28.7622C73.8962 28.722 73.9542 28.6642 73.9944 28.5947L83.9297 12.0305C83.9706 11.9653 84.0274 11.9114 84.0951 11.8738C84.1627 11.8362 84.2389 11.8162 84.3165 11.8156H88.9941C89.1159 11.8156 89.2327 11.8634 89.3188 11.9485C89.405 12.0336 89.4534 12.149 89.4534 12.2694L89.538 39.4146C89.538 39.535 89.4896 39.6504 89.4034 39.7355C89.3173 39.8206 89.2005 39.8684 89.0787 39.8684H83.833Z" fill="black"/>
<path d="M115.863 18.3003C115.985 18.3003 116.102 18.3481 116.188 18.4332C116.274 18.5183 116.323 18.6337 116.323 18.7541V39.4146C116.323 39.4742 116.311 39.5332 116.288 39.5883C116.264 39.6433 116.231 39.6934 116.188 39.7355C116.145 39.7776 116.095 39.8111 116.039 39.8339C115.983 39.8567 115.924 39.8684 115.863 39.8684H110.787C110.664 39.8685 110.546 39.821 110.458 39.7362C110.37 39.6515 110.319 39.536 110.315 39.4146V38.507C110.31 38.4114 110.277 38.3194 110.221 38.2412C110.165 38.163 110.088 38.1019 109.999 38.0646C109.91 38.0274 109.812 38.0155 109.716 38.0303C109.62 38.0452 109.531 38.0862 109.457 38.1487C108.814 38.6896 108.093 39.1324 107.318 39.4624C106.124 39.9565 104.841 40.2044 103.547 40.1909C102.307 40.2638 101.064 40.0899 99.8932 39.6796C98.7222 39.2693 97.6465 38.631 96.7299 37.8024C95.0619 36.1782 94.2158 33.7539 94.2158 30.5533V18.7541C94.2158 18.6337 94.2642 18.5183 94.3504 18.4332C94.4365 18.3481 94.5533 18.3003 94.6751 18.3003H100.09C100.212 18.3003 100.329 18.3481 100.415 18.4332C100.501 18.5183 100.549 18.6337 100.549 18.7541V29.5621C100.549 33.0413 102.02 34.7809 104.961 34.7809C105.634 34.8028 106.304 34.6856 106.928 34.4367C107.553 34.1879 108.118 33.8129 108.587 33.3359C109.587 32.1026 110.08 30.5414 109.965 28.9649V18.7541C109.965 18.6337 110.013 18.5183 110.099 18.4332C110.186 18.3481 110.302 18.3003 110.424 18.3003H115.863Z" fill="black"/>
<path d="M129.473 40.1909C127.684 40.1923 125.902 39.9757 124.167 39.546C122.837 39.2253 121.557 38.7313 120.359 38.077C120.266 38.0179 120.197 37.9272 120.166 37.8218C120.135 37.7164 120.143 37.6034 120.19 37.5038L121.906 33.8255C121.933 33.7657 121.972 33.7122 122.021 33.6688C122.07 33.6253 122.129 33.5928 122.192 33.5735C122.255 33.5542 122.321 33.5486 122.387 33.5571C122.452 33.5656 122.515 33.5879 122.571 33.6225C123.551 34.1306 124.585 34.5311 125.653 34.8167C126.976 35.1813 128.342 35.3701 129.714 35.378C132.386 35.378 133.727 34.7212 133.727 33.4075C133.721 33.0982 133.608 32.8001 133.409 32.5616C133.209 32.3232 132.934 32.1584 132.627 32.0939C131.539 31.7554 130.416 31.5352 129.279 31.437C127.785 31.2345 126.306 30.9272 124.856 30.5175C123.697 30.1739 122.648 29.5403 121.81 28.6783C120.931 27.6205 120.498 26.2691 120.601 24.9045C120.596 23.6116 121.02 22.3529 121.81 21.3217C122.715 20.1913 123.92 19.3314 125.291 18.8377C127.034 18.2166 128.877 17.9171 130.73 17.954C132.272 17.9564 133.809 18.1327 135.311 18.4794C136.509 18.7191 137.668 19.121 138.755 19.6737C138.857 19.7249 138.935 19.8138 138.971 19.9211C139.007 20.0284 138.999 20.1454 138.949 20.2469L137.22 23.8894C137.194 23.9459 137.155 23.9963 137.108 24.0374C137.06 24.0786 137.005 24.1097 136.945 24.1288C136.885 24.1478 136.821 24.1544 136.758 24.1482C136.696 24.1419 136.635 24.1229 136.58 24.0924C134.769 23.1795 132.763 22.7086 130.73 22.719C129.683 22.659 128.638 22.8516 127.684 23.2803C127.395 23.403 127.146 23.6035 126.967 23.859C126.787 24.1145 126.684 24.4147 126.669 24.7254C126.666 25.0478 126.774 25.3617 126.973 25.6171C127.172 25.8725 127.452 26.0546 127.768 26.1346C128.904 26.4885 130.069 26.7443 131.249 26.8989C132.732 27.1197 134.198 27.4389 135.637 27.8543C136.772 28.1769 137.796 28.8005 138.598 29.6576C139.467 30.688 139.9 32.0099 139.807 33.3478C139.825 34.6427 139.399 35.9055 138.598 36.9306C137.642 38.0491 136.385 38.8773 134.972 39.3191C133.205 39.9248 131.343 40.2199 129.473 40.1909Z" fill="black"/>
<path d="M152.486 17.9779C155.291 17.7885 158.067 18.6402 160.27 20.3664C162.083 21.9587 162.989 24.3472 162.989 27.5319V39.3788C162.989 39.4992 162.941 39.6146 162.855 39.6997C162.769 39.7848 162.652 39.8326 162.53 39.8326H157.526C157.404 39.8326 157.287 39.7848 157.201 39.6997C157.115 39.6146 157.067 39.4992 157.067 39.3788V38.8175C157.067 38.3517 156.354 38.1368 156.003 38.4473C154.421 39.6826 152.431 40.2914 150.419 40.1551C148.912 40.1875 147.415 39.8983 146.032 39.3071C144.9 38.8081 143.932 38.0055 143.239 36.9903C142.584 35.9879 142.243 34.816 142.26 33.6225C142.216 32.7035 142.4 31.7877 142.796 30.955C143.192 30.1223 143.788 29.3981 144.533 28.8455C146.08 27.6911 148.449 27.1139 151.64 27.1139H156.209C156.268 27.1158 156.328 27.1051 156.383 27.0827C156.438 27.0602 156.488 27.0264 156.529 26.9836C156.57 26.9407 156.602 26.8897 156.622 26.8339C156.641 26.7782 156.649 26.7189 156.644 26.6601C156.633 26.1587 156.521 25.6646 156.313 25.2071C156.106 24.7496 155.807 24.338 155.435 23.9969C154.362 23.1735 153.018 22.7734 151.664 22.8743C150.488 22.8711 149.32 23.0608 148.207 23.4356C147.349 23.683 146.534 24.0575 145.79 24.5462C145.733 24.5847 145.668 24.611 145.601 24.6234C145.533 24.6358 145.463 24.6341 145.396 24.6183C145.329 24.6026 145.266 24.5732 145.211 24.532C145.156 24.4908 145.11 24.4387 145.077 24.379L143.252 20.856C143.197 20.7602 143.182 20.6475 143.209 20.5409C143.236 20.4343 143.303 20.3419 143.397 20.2828C144.605 19.5535 145.917 19.0061 147.289 18.6586C148.982 18.2008 150.73 17.9718 152.486 17.9779ZM152.002 35.9752C153.009 35.9935 154.002 35.7461 154.879 35.2586C155.694 34.7708 156.313 34.0198 156.632 33.1329C156.643 33.0817 156.643 33.0288 156.632 32.9776V31.3057C156.632 31.1853 156.583 31.0699 156.497 30.9848C156.411 30.8997 156.294 30.8519 156.172 30.8519H152.292C149.694 30.8519 148.388 31.6878 148.388 33.3717C148.377 33.7436 148.457 34.1127 148.621 34.4475C148.785 34.7824 149.029 35.073 149.331 35.2945C150.126 35.7946 151.062 36.0329 152.002 35.9752Z" fill="black"/>
<path d="M175.656 18.3004C175.654 18.361 175.665 18.4213 175.687 18.4777C175.709 18.5342 175.743 18.5856 175.786 18.629C175.829 18.6725 175.88 18.7069 175.936 18.7305C175.993 18.754 176.054 18.7662 176.115 18.7661H180.793C180.914 18.7661 181.031 18.814 181.117 18.8991C181.203 18.9842 181.252 19.0996 181.252 19.22V23.1132C181.252 23.2336 181.203 23.349 181.117 23.4341C181.031 23.5192 180.914 23.567 180.793 23.567H176.296C176.174 23.567 176.058 23.6148 175.972 23.6999C175.885 23.7851 175.837 23.9005 175.837 24.0208V39.4147C175.837 39.4743 175.825 39.5333 175.802 39.5884C175.779 39.6434 175.745 39.6935 175.702 39.7356C175.66 39.7777 175.609 39.8112 175.553 39.834C175.498 39.8568 175.438 39.8685 175.378 39.8685H169.975C169.853 39.8685 169.736 39.8207 169.65 39.7356C169.564 39.6505 169.516 39.5351 169.516 39.4147V24.0447C169.516 23.9244 169.467 23.8089 169.381 23.7238C169.295 23.6387 169.178 23.5909 169.056 23.5909H166.639C166.517 23.5909 166.4 23.5431 166.314 23.458C166.228 23.3729 166.18 23.2575 166.18 23.1371V19.2438C166.18 19.1235 166.228 19.0081 166.314 18.923C166.4 18.8378 166.517 18.79 166.639 18.79H169.056C169.118 18.7901 169.178 18.7779 169.235 18.7544C169.291 18.7308 169.343 18.6963 169.385 18.6529C169.428 18.6095 169.462 18.5581 169.484 18.5016C169.507 18.4452 169.517 18.3849 169.516 18.3243V17.8227C169.459 16.7516 169.623 15.6803 170 14.6742C170.376 13.6681 170.955 12.7483 171.703 11.9709C172.544 11.214 173.531 10.6325 174.605 10.2611C175.679 9.88967 176.817 9.73601 177.952 9.80929C178.853 9.80395 179.75 9.91231 180.623 10.1317C181.269 10.2606 181.892 10.4819 182.473 10.7886C182.56 10.8387 182.626 10.918 182.659 11.0122C182.693 11.1064 182.691 11.2092 182.654 11.3021L181.312 14.8848C181.285 14.9502 181.245 15.0092 181.193 15.058C181.141 15.1067 181.08 15.1442 181.013 15.1679C180.945 15.1915 180.874 15.2009 180.802 15.1953C180.731 15.1898 180.662 15.1694 180.599 15.1356C179.965 14.8233 179.265 14.6675 178.557 14.6818C176.635 14.6818 175.68 15.7208 175.68 17.7988L175.656 18.3004Z" fill="black"/>
<path d="M191.345 18.3003C191.343 18.3609 191.354 18.4212 191.376 18.4776C191.399 18.5341 191.432 18.5855 191.475 18.6289C191.518 18.6723 191.569 18.7068 191.625 18.7304C191.682 18.7539 191.743 18.7661 191.804 18.766H196.482C196.603 18.7691 196.718 18.8178 196.803 18.9023C196.889 18.9868 196.938 19.1004 196.941 19.2199V23.1131C196.938 23.2325 196.889 23.3462 196.803 23.4306C196.718 23.5151 196.603 23.5639 196.482 23.5669H192.01C191.888 23.5669 191.771 23.6147 191.685 23.6998C191.599 23.7849 191.55 23.9004 191.55 24.0207V39.4146C191.55 39.4742 191.538 39.5332 191.515 39.5883C191.492 39.6433 191.458 39.6933 191.416 39.7355C191.373 39.7776 191.322 39.8111 191.267 39.8339C191.211 39.8567 191.151 39.8684 191.091 39.8684H185.688C185.627 39.87 185.566 39.8594 185.509 39.8373C185.452 39.8153 185.4 39.7821 185.356 39.7398C185.312 39.6975 185.277 39.6469 185.253 39.5911C185.229 39.5352 185.217 39.4752 185.217 39.4146V24.0446C185.217 23.9243 185.168 23.8088 185.082 23.7237C184.996 23.6386 184.879 23.5908 184.758 23.5908H182.34C182.218 23.5908 182.102 23.543 182.015 23.4579C181.929 23.3728 181.881 23.2573 181.881 23.137V19.2437C181.881 19.1234 181.929 19.0079 182.015 18.9228C182.102 18.8377 182.218 18.7899 182.34 18.7899H184.758C184.819 18.7899 184.88 18.7778 184.936 18.7543C184.993 18.7307 185.044 18.6962 185.087 18.6528C185.129 18.6094 185.163 18.558 185.185 18.5015C185.208 18.4451 185.218 18.3848 185.217 18.3242V17.8226C185.162 16.7507 185.329 15.6791 185.707 14.6731C186.086 13.667 186.667 12.7476 187.417 11.9708C188.256 11.2154 189.241 10.6347 190.313 10.2634C191.384 9.89199 192.52 9.73753 193.653 9.80918C194.558 9.80308 195.46 9.91144 196.337 10.1316C196.979 10.2584 197.598 10.4798 198.174 10.7885C198.265 10.8347 198.335 10.9138 198.368 11.0094C198.402 11.105 198.397 11.2098 198.355 11.302L197.026 14.8847C196.997 14.9505 196.955 15.0097 196.903 15.0585C196.85 15.1074 196.787 15.1448 196.719 15.1684C196.651 15.192 196.578 15.2013 196.506 15.1956C196.434 15.1899 196.364 15.1695 196.3 15.1355C195.671 14.8232 194.974 14.6674 194.27 14.6817C192.348 14.6817 191.393 15.7207 191.393 17.7987L191.345 18.3003Z" fill="black"/>
<path d="M208.496 17.9779C211.301 17.7909 214.076 18.6423 216.28 20.3664C218.093 21.9587 219 24.3472 219 27.5319V39.3788C219 39.4992 218.951 39.6146 218.865 39.6997C218.779 39.7848 218.662 39.8326 218.54 39.8326H213.536C213.415 39.8326 213.298 39.7848 213.212 39.6997C213.125 39.6146 213.077 39.4992 213.077 39.3788V38.8175C213.077 38.3518 212.364 38.1368 212.013 38.4473C210.432 39.6826 208.441 40.2914 206.429 40.1551C204.922 40.1876 203.426 39.8984 202.042 39.3072C200.917 38.8194 199.954 38.029 199.262 37.0262C198.606 36.0237 198.265 34.8519 198.283 33.6584C198.238 32.7394 198.422 31.8235 198.818 30.9909C199.214 30.1582 199.811 29.4339 200.555 28.8814C202.102 27.6871 204.459 27.1497 207.65 27.1497H212.219C212.279 27.1515 212.339 27.1408 212.395 27.1185C212.451 27.0961 212.501 27.0626 212.543 27.0199C212.586 26.9772 212.618 26.9264 212.639 26.8706C212.66 26.8149 212.67 26.7554 212.666 26.6959C212.658 26.1943 212.546 25.6995 212.339 25.2417C212.131 24.7839 211.831 24.3726 211.457 24.0327C210.387 23.2062 209.041 22.8057 207.686 22.9102C206.515 22.9081 205.351 23.0977 204.242 23.4714C203.383 23.7164 202.567 24.0911 201.824 24.5821C201.767 24.6206 201.703 24.6468 201.635 24.6592C201.567 24.6717 201.498 24.6699 201.43 24.6542C201.363 24.6385 201.3 24.6091 201.245 24.5678C201.19 24.5266 201.145 24.4745 201.111 24.4149L199.262 20.9396C199.214 20.8414 199.204 20.7294 199.232 20.6241C199.261 20.5188 199.328 20.4274 199.419 20.3664C200.634 19.6046 201.958 19.0289 203.347 18.6586C205.025 18.2039 206.757 17.975 208.496 17.9779ZM208.013 35.9752C209.019 35.9923 210.012 35.7451 210.889 35.2587C211.701 34.7678 212.32 34.0179 212.642 33.1329C212.653 33.0817 212.653 33.0288 212.642 32.9777V31.3057C212.639 31.1843 212.588 31.0688 212.5 30.9841C212.412 30.8993 212.294 30.8519 212.171 30.8519H208.327C205.74 30.8519 204.435 31.6879 204.435 33.3718C204.429 33.7416 204.51 34.1077 204.671 34.4414C204.833 34.775 205.071 35.0671 205.366 35.2945C206.156 35.786 207.08 36.0238 208.013 35.9752Z" fill="black"/>
</svg>
