<svg width="81" height="80" viewBox="0 0 81 80" fill="none" xmlns="http://www.w3.org/2000/svg">
<rect x="0.133301" width="80" height="80" rx="40" fill="white"/>
<g clip-path="url(#clip0_121_4)">
<path d="M21.3697 17.5992C22.3811 17.9411 22.7323 18.6575 22.7323 19.7017C22.7136 31.6044 22.723 43.5071 22.723 55.4098C22.723 56.7865 23.3551 57.4186 24.727 57.4186C36.6297 57.4186 48.5324 57.4233 60.4352 57.4092C61.4793 57.4092 62.2004 57.7557 62.5376 58.7718V59.4461C62.1957 60.4575 61.4793 60.8087 60.4305 60.8087C48.509 60.7899 36.5876 60.7993 24.6662 60.7993C21.5102 60.7993 19.3423 58.6313 19.3423 55.4754C19.3423 43.5305 19.3469 31.595 19.3329 19.6595C19.3329 18.6247 19.7028 17.9317 20.6908 17.5992H21.3651H21.3697Z" fill="#1BAD4E"/>
<path d="M35.0518 36.3711C36.4237 36.3805 37.6084 36.8487 38.587 37.8086C38.8164 38.0334 39.0318 38.2769 39.2472 38.5203C40.3195 39.7284 41.7242 39.5036 42.3423 38.024C43.4192 35.4346 44.4962 32.8406 45.5732 30.2465C45.7745 29.7689 45.9618 29.2819 46.1772 28.809C47.6381 25.6156 51.871 24.8617 54.3433 27.3574C54.8256 27.8444 55.2798 28.3688 55.72 28.898C56.324 29.6237 56.2397 30.6398 55.5467 31.2485C54.8537 31.8573 53.847 31.8057 53.1961 31.1174C52.8262 30.7288 52.4844 30.3167 52.1239 29.9234C51.1265 28.8371 49.7171 29.0712 49.1505 30.4338C47.9003 33.4259 46.6688 36.4226 45.414 39.4147C43.9015 43.0295 39.5141 43.7927 36.8545 40.9037C36.7093 40.7492 36.5735 40.59 36.4331 40.4355C35.4217 39.321 33.942 39.602 33.4316 41.0067C32.5232 43.5165 31.6289 46.0263 30.7299 48.536C30.1727 50.0953 29.6155 51.6545 29.0489 53.2091C28.7258 54.0941 27.8923 54.5483 27.0448 54.3282C26.0287 54.066 25.5183 53.0827 25.8883 52.0479C26.5953 50.0485 27.3164 48.0584 28.0328 46.0637C28.7914 43.952 29.5405 41.8308 30.3131 39.7237C31.067 37.6681 32.9072 36.3805 35.0611 36.3711H35.0518Z" fill="#1BAD4E"/>
</g>
<defs>
<clipPath id="clip0_121_4">
<rect width="43.2" height="43.2" fill="white" transform="translate(19.3329 17.5992)"/>
</clipPath>
</defs>
</svg>
