<svg width="81" height="80" viewBox="0 0 81 80" fill="none" xmlns="http://www.w3.org/2000/svg">
<rect x="0.133362" width="80" height="80" rx="40" fill="white"/>
<g clip-path="url(#clip0_121_35)">
<rect width="41.6" height="49.9993" transform="translate(22.5334 16.0002)" fill="white"/>
<path d="M44.6311 38.8006C45.9289 39.2873 47.1725 39.7379 48.4162 40.2065C49.3535 40.549 50.3088 40.8914 51.246 41.2519C52.8682 41.8828 53.8235 43.0724 54.1299 44.7847C54.1479 44.9289 54.1479 45.0731 54.1659 45.2533C50.489 45.5777 47.533 47.1639 45.4422 50.1919C43.3514 53.22 42.9188 56.5545 43.9282 60.1053C43.045 60.1053 42.1978 60.1053 41.3327 60.1053C36.1237 60.1053 30.9146 60.1053 25.7056 60.1053C24.2637 60.1053 23.2003 59.132 23.1282 57.7081C22.9659 54.6259 22.8218 51.5257 22.6595 48.4436C22.6055 47.4703 22.5334 46.497 22.5334 45.5237C22.5153 43.559 23.5968 41.9549 25.4172 41.2519C27.5982 40.4228 29.7971 39.6478 31.9961 38.8367C32.0322 38.8367 32.0502 38.8367 32.1223 38.8006L36.3039 50.967H36.376C36.4301 50.3001 36.5022 49.6332 36.5562 48.9663C36.6824 47.5604 36.7906 46.1545 36.8987 44.7486C36.8987 44.5684 36.8446 44.3701 36.7725 44.2079C36.376 43.4869 35.9614 42.802 35.5649 42.081C35.1864 41.4141 35.5289 40.8193 36.3039 40.8193C37.6918 40.8193 39.0616 40.8193 40.4495 40.8193C41.2786 40.8193 41.603 41.4322 41.1885 42.1351C40.7739 42.8381 40.3594 43.541 39.9628 44.2439C39.8727 44.3881 39.8367 44.5864 39.8547 44.7666C39.9989 46.5691 40.1431 48.3895 40.2873 50.1919C40.3053 50.4443 40.3413 50.6966 40.4134 50.967L44.6491 38.7826L44.6311 38.8006Z" fill="#1BAD4E"/>
<path d="M38.2685 37.2153C36.5202 37.2513 35.0062 36.5303 33.7985 35.2146C32.3205 33.5924 31.1309 31.7899 30.5361 29.6451C30.5001 29.5369 30.41 29.4288 30.3018 29.3567C29.725 28.9241 29.4186 28.3473 29.3646 27.6444C29.3465 27.374 29.3285 27.0856 29.3646 26.8153C29.4006 26.4007 29.653 26.0763 30.0134 25.896C30.2117 25.7879 30.2478 25.6617 30.2478 25.4634C30.2117 24.7605 30.1576 24.0575 30.1576 23.3546C30.1576 22.1109 30.6984 21.0835 31.5815 20.2003C31.7077 20.0742 31.7978 19.912 31.8519 19.7497C32.2124 18.3078 33.0776 17.3345 34.4835 16.8478C36.0155 16.253 37.6017 15.8925 39.2419 16.0367C41.2606 16.199 43.1711 16.6676 44.6491 18.1997C46.019 19.6236 46.6679 21.3359 46.5417 23.3185C46.4876 24.0395 46.4696 24.7785 46.4696 25.4995C46.4696 25.6076 46.5597 25.7518 46.6498 25.8239C47.1725 26.1664 47.4068 26.635 47.3708 27.2478C47.3167 28.113 47.0824 28.888 46.3074 29.4107C46.2172 29.4648 46.1812 29.609 46.1452 29.7172C45.4783 32.0062 44.1985 33.9168 42.5223 35.5931C41.3687 36.7286 39.9809 37.2513 38.2866 37.2333L38.2685 37.2153ZM44.6491 28.5997C44.0003 28.4555 43.82 28.0229 43.838 27.4281C43.8561 26.5629 43.838 25.7158 43.838 24.8506C43.838 24.0936 43.2973 23.5168 42.5403 23.5168C39.7646 23.5168 36.9708 23.5168 34.1951 23.5168C33.402 23.5168 32.8793 24.0756 32.8793 24.8686C32.8793 25.7158 32.8613 26.5629 32.8793 27.4101C32.8973 28.0229 32.7531 28.4915 32.1043 28.6357C32.1043 28.7078 32.1043 28.7619 32.1043 28.8159C32.1223 28.9421 32.1583 29.0683 32.1944 29.1945C32.7531 31.1411 33.8346 32.7813 35.2224 34.2232C36.8987 35.9716 39.6564 35.8995 41.1524 34.4936C41.8374 33.8627 42.4141 33.1237 42.9729 32.3667C43.784 31.2492 44.3788 30.0055 44.6491 28.5816V28.5997Z" fill="#1BAD4E"/>
<path d="M45.4783 56.663C45.4422 51.454 49.768 47.2904 54.8689 47.3264C59.9698 47.3625 64.2595 51.6162 64.1514 56.8793C64.0432 61.854 59.9337 66.0176 54.7788 65.9995C49.6599 65.9815 45.4963 61.7999 45.4963 56.663H45.4783ZM54.7968 63.7285C58.7081 63.7285 61.8803 60.5742 61.8803 56.681C61.8803 52.7697 58.7081 49.5794 54.7968 49.5794C50.8675 49.5794 47.7313 52.7517 47.7313 56.681C47.7313 60.5742 50.8855 63.7105 54.7788 63.7105L54.7968 63.7285Z" fill="#1BAD4E"/>
<path d="M55.5178 61.187C55.5178 61.4214 55.5178 61.6377 55.5178 61.8539C55.4998 62.3406 55.1573 62.665 54.6887 62.665C54.2381 62.665 53.9136 62.3226 53.9136 61.8359C53.9136 61.4754 53.7334 61.2531 53.3729 61.169C53.2287 61.133 53.0665 61.0969 52.9223 61.0609C52.3996 60.8987 52.1473 60.43 52.3095 59.9434C52.4537 59.4747 52.9223 59.2765 53.445 59.3846C53.9136 59.4747 54.3823 59.5468 54.8509 59.5108C55.3015 59.5108 55.6259 59.2224 55.7161 58.7538C55.8062 58.3212 55.5899 57.9787 55.2294 57.7624C54.7788 57.5101 54.2921 57.3118 53.8235 57.0775C53.5712 56.9513 53.3008 56.8071 53.0665 56.6449C52.2374 56.0862 51.8408 55.3111 51.949 54.3198C52.0571 53.3465 52.5979 52.6616 53.4811 52.3011C53.8956 52.1389 54.0398 51.9406 54.0038 51.508C53.9677 51.0754 54.22 50.787 54.5986 50.6789C55.0852 50.5527 55.5538 50.8772 55.6079 51.3818C55.6079 51.5801 55.6079 51.7784 55.6079 51.9766C55.8422 52.0307 56.0405 52.0487 56.2388 52.1028C56.7434 52.229 57.0138 52.6976 56.8876 53.1663C56.7795 53.6169 56.3109 53.8512 55.8062 53.7791C55.4096 53.707 55.0131 53.6709 54.6166 53.689C54.2741 53.689 54.0038 53.9052 53.8956 54.2657C53.8055 54.5902 53.9317 54.8966 54.2921 55.1129C54.6346 55.3111 55.0131 55.4553 55.3556 55.6716C55.8963 55.9961 56.5091 56.2664 56.9597 56.699C58.0953 57.7444 58.0232 60.2318 55.8422 61.0429C55.7341 61.0789 55.6259 61.1149 55.4998 61.169L55.5178 61.187Z" fill="#1BAD4E"/>
</g>
<defs>
<clipPath id="clip0_121_35">
<rect width="41.6" height="49.9993" fill="white" transform="translate(22.5334 16.0002)"/>
</clipPath>
</defs>
</svg>
